# xmcd
#
# Track frame offsets:
#	150
#	13655
#	28149
#	45512
#	63067
#	72530
#	103241
#	117440
#	164120
#	185077
#	198882
#	212190
#
# Disc length: 3122 seconds
#
# Revision: 0
# Processed by: cddbd v1.5.1PL0 Copyright (c) Steve Scherf et al.
# Submitted via: CDmax 2.0
#
DISCID=b50c300c
DTITLE=Various Artist - Black and White Blues - Get Up And Play (2)
DYEAR=1900
DGENRE=Blues
TTITLE0=Leadbelly - Packin' Trunk
TTITLE1=Ken Hensley - Hellhound On My Trail
TTITLE2=John Davies - Everyday I Have The Blues
TTITLE3=Mick Jagger and Cris Jagger - Racketeer Blues
TTITLE4=Lightnin Hopkins - Can't Do Like You Used To
TTITLE5=Rory Callagher - Showbiz Blues
TTITLE6=Joe Williams - Somebody's Been Worryin'
TTITLE7=Mick Taylor - You Shook Me
TTITLE8=Savoy Brown - Shake For Me
TTITLE9=Torry Mc Phee - Drop Down Mama
TTITLE10=Bukka White - Special Streamline
TTITLE11=Robert Gordon - "Prove It"
EXTD=
EXTT0=
EXTT1=
EXTT2=
EXTT3=
EXTT4=
EXTT5=
EXTT6=
EXTT7=
EXTT8=
EXTT9=
EXTT10=
EXTT11=
PLAYORDER=
